<svg xmlns="http://www.w3.org/2000/svg" viewBox="0 0 64 64">
    <rect width="64" height="64" rx="12" fill="#1b4d2e"/>
    <path d="M 25.6,23.2 C 25.4,14.56 22,8.22 20.8,4 Q 32,6.4 43.2,4 C 42,8.22 38.6,14.56 38.4,23.2 L 40.8,23.2 40.8,25.6 C 49.44,25.4 55.78,22 60,20.8 Q 57.6,32 60,43.2 C 55.78,42 49.44,38.6 40.8,38.4 L 40.8,40.8 38.4,40.8 C 38.6,49.44 42,55.78 43.2,60 Q 32,57.6 20.8,60 C 22,55.78 25.4,49.44 25.6,40.8 L 23.2,40.8 23.2,38.4 C 14.56,38.6 8.22,42 4,43.2 Q 6.4,32 4,20.8 C 8.22,22 14.56,25.4 23.2,25.6 L 23.2,23.2 25.6,23.2 Z M 28.9,32 a 3.1,3.1 0 1,0 6.2,0 a 3.1,3.1 0 1,0 -6.2,0 Z" fill="#ffffff" fill-rule="evenodd"/>
</svg>
