<svg xmlns="http://www.w3.org/2000/svg">
<!-- 광명교회 아이콘 팩 — 24px 격자, 1.6 선 + 은은한 색면(듀오톤). 선은 글자색(currentColor)을 따르고, 색면 색·농도는 CSS 변수 ico-tint, ico-tint-o로 덮어쓸 수 있다. 목록·사용법: ARCHITECTURE.md -->
  <symbol id="church" viewBox="0 0 24 24" fill="none" stroke="currentColor" stroke-width="1.6" stroke-linecap="round" stroke-linejoin="round">
    <path style="fill:var(--ico-tint,#d08a2c);fill-opacity:var(--ico-tint-o,.34);stroke:none" d="M6 11.5 12 6.5l6 5V21H6z"/>
    <path d="M12 2.5v4M10.4 4h3.2"/>
    <path d="M4.5 12.5 12 6.5l7.5 6"/>
    <path d="M6 11.3V21h12v-9.7"/>
    <path d="M10.3 21v-3.3a1.7 1.7 0 0 1 3.4 0V21"/>
    <path d="M3.5 21h17"/>
  </symbol>
  <symbol id="dove" viewBox="0 0 24 24" fill="none" stroke="currentColor" stroke-width="1.6" stroke-linecap="round" stroke-linejoin="round">
    <path style="fill:var(--ico-tint,#6aa6cf);fill-opacity:var(--ico-tint-o,.34);stroke:none" d="M4 14.5c2.6.4 4.8-.3 6.6-2.2l2.1-2.1c1-1 2.2-1.6 3.6-1.6 1.2 0 2.2.7 2.6 1.8l2.1.8-2.1.9c-.3 3.6-3.4 6.4-7.4 6.4H6.3l2.4-2.4c-1.8 0-3.5-.6-4.7-1.6z"/>
    <path d="M4 14.5c2.6.4 4.8-.3 6.6-2.2l2.1-2.1c1-1 2.2-1.6 3.6-1.6 1.2 0 2.2.7 2.6 1.8l2.1.8-2.1.9c-.3 3.6-3.4 6.4-7.4 6.4H6.3l2.4-2.4c-1.8 0-3.5-.6-4.7-1.6z"/>
    <path d="M10.9 12c-1.6-2.4-1.9-5-1-8 2.4 1.3 4 3.1 4.6 5.4"/>
    <circle cx="16.4" cy="10.2" r=".9" style="fill:currentColor;stroke:none"/>
  </symbol>
  <symbol id="map" viewBox="0 0 24 24" fill="none" stroke="currentColor" stroke-width="1.6" stroke-linecap="round" stroke-linejoin="round">
    <path style="fill:var(--ico-tint,#c9553a);fill-opacity:var(--ico-tint-o,.34);stroke:none" d="M12 21.2s-6.3-5.6-6.3-11.2a6.3 6.3 0 0 1 12.6 0c0 5.6-6.3 11.2-6.3 11.2z"/>
    <path d="M12 21.2s-6.3-5.6-6.3-11.2a6.3 6.3 0 0 1 12.6 0c0 5.6-6.3 11.2-6.3 11.2z"/>
    <circle cx="12" cy="10" r="2.3"/>
  </symbol>
  <symbol id="people" viewBox="0 0 24 24" fill="none" stroke="currentColor" stroke-width="1.6" stroke-linecap="round" stroke-linejoin="round">
    <path style="fill:var(--ico-tint,#d08a2c);fill-opacity:var(--ico-tint-o,.34);stroke:none" d="M3 19.5c0-3.1 2.3-5.3 5.3-5.3s5.3 2.2 5.3 5.3z"/>
    <path style="fill:var(--ico-tint,#4f9a52);fill-opacity:var(--ico-tint-o,.34);stroke:none" d="M10.4 19.5c0-3.1 2.3-5.3 5.3-5.3s5.3 2.2 5.3 5.3z"/>
    <circle cx="8.3" cy="8.3" r="2.6"/>
    <circle cx="15.7" cy="8.3" r="2.6"/>
    <path d="M3 19.5c0-3.1 2.3-5.3 5.3-5.3 1.5 0 2.8.5 3.7 1.4M10.4 19.5c0-3.1 2.3-5.3 5.3-5.3s5.3 2.2 5.3 5.3"/>
  </symbol>
  <symbol id="hands-heart" viewBox="0 0 24 24" fill="none" stroke="currentColor" stroke-width="1.6" stroke-linecap="round" stroke-linejoin="round">
    <path style="fill:var(--ico-tint,#c9553a);fill-opacity:var(--ico-tint-o,.34);stroke:none" d="M12 11.6c-1.8-1.5-3.3-2.6-3.3-4.1a1.7 1.7 0 0 1 3.3-.6 1.7 1.7 0 0 1 3.3.6c0 1.5-1.5 2.6-3.3 4.1z"/>
    <path d="M12 11.6c-1.8-1.5-3.3-2.6-3.3-4.1a1.7 1.7 0 0 1 3.3-.6 1.7 1.7 0 0 1 3.3.6c0 1.5-1.5 2.6-3.3 4.1z"/>
    <path d="M2.5 12.5h1.7c1 0 1.9.5 2.4 1.4l1.4 2.6h8l1.4-2.6c.5-.9 1.4-1.4 2.4-1.4h1.7"/>
    <path d="M7.5 16.5l1 2.2c.4.8 1.2 1.3 2.1 1.3h2.8c.9 0 1.7-.5 2.1-1.3l1-2.2"/>
  </symbol>
  <symbol id="leaf" viewBox="0 0 24 24" fill="none" stroke="currentColor" stroke-width="1.6" stroke-linecap="round" stroke-linejoin="round">
    <path style="fill:var(--ico-tint,#4f9a52);fill-opacity:var(--ico-tint-o,.34);stroke:none" d="M5 19C5 10.2 10.2 5 19 5c0 8.8-5.2 14-14 14z"/>
    <path d="M5 19C5 10.2 10.2 5 19 5c0 8.8-5.2 14-14 14z"/>
    <path d="M5 19 14 10"/>
  </symbol>
  <symbol id="palm" viewBox="0 0 24 24" fill="none" stroke="currentColor" stroke-width="1.6" stroke-linecap="round" stroke-linejoin="round">
    <g transform="rotate(35 12 12)">
    <path style="fill:var(--ico-tint,#4f9a52);fill-opacity:var(--ico-tint-o,.34);stroke:none" d="M12 3.5c3.2 2 5 5.5 5 9.5s-1.8 6.5-5 8c-3.2-1.5-5-4-5-8s1.8-7.5 5-9.5z"/>
    <path d="M12 2.5v19M12 6.5 9.2 4.6M12 6.5l2.8-1.9M12 10 8 7.6M12 10l4-2.4M12 13.5l-4.4-2.6M12 13.5l4.4-2.6M12 17l-3.6-2.2M12 17l3.6-2.2"/>
    </g>
  </symbol>
  <symbol id="cross" viewBox="0 0 24 24" fill="none" stroke="currentColor" stroke-width="1.6" stroke-linecap="round" stroke-linejoin="round">
    <path style="fill:var(--ico-tint,#c99a1e);fill-opacity:var(--ico-tint-o,.34);stroke:none" d="M10.5 2.8h3v5h4.7v3h-4.7v10.4h-3V10.8H5.8v-3h4.7z"/>
    <path d="M10.5 2.8h3v5h4.7v3h-4.7v10.4h-3V10.8H5.8v-3h4.7z"/>
  </symbol>
  <symbol id="book" viewBox="0 0 24 24" fill="none" stroke="currentColor" stroke-width="1.6" stroke-linecap="round" stroke-linejoin="round">
    <path style="fill:var(--ico-tint,#3f86b5);fill-opacity:var(--ico-tint-o,.34);stroke:none" d="M12 6.6C10 5.1 7 4.6 3 5v13.2c4-.4 7 .1 9 1.6 2-1.5 5-2 9-1.6V5c-4-.4-7 .1-9 1.6z"/>
    <path d="M12 6.6C10 5.1 7 4.6 3 5v13.2c4-.4 7 .1 9 1.6 2-1.5 5-2 9-1.6V5c-4-.4-7 .1-9 1.6z"/>
    <path d="M12 6.6v13.2"/>
  </symbol>
  <symbol id="books" viewBox="0 0 24 24" fill="none" stroke="currentColor" stroke-width="1.6" stroke-linecap="round" stroke-linejoin="round">
    <path style="fill:var(--ico-tint,#c9553a);fill-opacity:var(--ico-tint-o,.34);stroke:none" d="M4 4.5h4v15H4z"/>
    <path style="fill:var(--ico-tint,#3f86b5);fill-opacity:var(--ico-tint-o,.34);stroke:none" d="M8 4.5h4v15H8z"/>
    <path d="M4 4.5h4v15H4zM8 4.5h4v15H8z"/>
    <path d="M13 5.6l3.8-1 3.9 14.6-3.9 1z"/>
    <path d="M4 8h4M8 16h4"/>
  </symbol>
  <symbol id="calendar" viewBox="0 0 24 24" fill="none" stroke="currentColor" stroke-width="1.6" stroke-linecap="round" stroke-linejoin="round">
    <path style="fill:var(--ico-tint,#c9553a);fill-opacity:var(--ico-tint-o,.34);stroke:none" d="M3.5 7a2 2 0 0 1 2-2h13a2 2 0 0 1 2 2v3h-17z"/>
    <path d="M5.5 5h13a2 2 0 0 1 2 2v12a2 2 0 0 1-2 2h-13a2 2 0 0 1-2-2V7a2 2 0 0 1 2-2z"/>
    <path d="M3.5 10h17M8 3v4M16 3v4"/>
    <circle cx="8" cy="14" r=".9" style="fill:currentColor;stroke:none"/>
    <circle cx="12" cy="14" r=".9" style="fill:currentColor;stroke:none"/>
    <circle cx="16" cy="14" r=".9" style="fill:currentColor;stroke:none"/>
    <circle cx="8" cy="17.3" r=".9" style="fill:currentColor;stroke:none"/>
    <circle cx="12" cy="17.3" r=".9" style="fill:currentColor;stroke:none"/>
  </symbol>
  <symbol id="candle" viewBox="0 0 24 24" fill="none" stroke="currentColor" stroke-width="1.6" stroke-linecap="round" stroke-linejoin="round">
    <path style="fill:var(--ico-tint,#dd7a32);fill-opacity:var(--ico-tint-o,.34);stroke:none" d="M12 8.4c-1.5-1.2-1.8-3 0-5.4 1.8 2.4 1.5 4.2 0 5.4z"/>
    <path style="fill:var(--ico-tint,#c99a1e);fill-opacity:var(--ico-tint-o,.34);stroke:none" d="M9 10.5h6V20H9z"/>
    <path d="M12 8.4c-1.5-1.2-1.8-3 0-5.4 1.8 2.4 1.5 4.2 0 5.4z"/>
    <path d="M12 8.4v2.1M9 10.5h6V20.5H9z"/>
    <path d="M6.5 20.5h11"/>
  </symbol>
  <symbol id="star" viewBox="0 0 24 24" fill="none" stroke="currentColor" stroke-width="1.6" stroke-linecap="round" stroke-linejoin="round">
    <path style="fill:var(--ico-tint,#c99a1e);fill-opacity:var(--ico-tint-o,.34);stroke:none" d="M12 3.2l2.7 5.5 6 .9-4.4 4.2 1 6L12 16.9l-5.3 2.9 1-6-4.4-4.2 6-.9z"/>
    <path d="M12 3.2l2.7 5.5 6 .9-4.4 4.2 1 6L12 16.9l-5.3 2.9 1-6-4.4-4.2 6-.9z"/>
  </symbol>
  <symbol id="sparkle" viewBox="0 0 24 24" fill="none" stroke="currentColor" stroke-width="1.6" stroke-linecap="round" stroke-linejoin="round">
    <path style="fill:var(--ico-tint,#c99a1e);fill-opacity:var(--ico-tint-o,.34);stroke:none" d="M11 4c.6 4.3 2.7 6.4 7 7-4.3.6-6.4 2.7-7 7-.6-4.3-2.7-6.4-7-7 4.3-.6 6.4-2.7 7-7z"/>
    <path d="M11 4c.6 4.3 2.7 6.4 7 7-4.3.6-6.4 2.7-7 7-.6-4.3-2.7-6.4-7-7 4.3-.6 6.4-2.7 7-7z"/>
    <path d="M19 2.8v3.4M17.3 4.5h3.4M18.5 17.5v2.6M17.2 18.8h2.6"/>
  </symbol>
  <symbol id="sunrise" viewBox="0 0 24 24" fill="none" stroke="currentColor" stroke-width="1.6" stroke-linecap="round" stroke-linejoin="round">
    <path style="fill:var(--ico-tint,#dd7a32);fill-opacity:var(--ico-tint-o,.34);stroke:none" d="M6.5 17.5a5.5 5.5 0 0 1 11 0z"/>
    <path d="M6.5 17.5a5.5 5.5 0 0 1 11 0"/>
    <path d="M2.5 17.5h19M7 21h10M12 4.5v3M5.3 9.3l1.8 1.8M18.7 9.3l-1.8 1.8M2.5 13.8H4.5M19.5 13.8h2"/>
  </symbol>
  <symbol id="sun" viewBox="0 0 24 24" fill="none" stroke="currentColor" stroke-width="1.6" stroke-linecap="round" stroke-linejoin="round">
    <circle style="fill:var(--ico-tint,#c99a1e);fill-opacity:var(--ico-tint-o,.34);stroke:none" cx="12" cy="12" r="4.2"/>
    <circle cx="12" cy="12" r="4.2"/>
    <path d="M12 2.5v2.2M12 19.3v2.2M2.5 12h2.2M19.3 12h2.2M5.3 5.3l1.6 1.6M17.1 17.1l1.6 1.6M5.3 18.7l1.6-1.6M17.1 6.9l1.6-1.6"/>
  </symbol>
  <symbol id="sunset" viewBox="0 0 24 24" fill="none" stroke="currentColor" stroke-width="1.6" stroke-linecap="round" stroke-linejoin="round">
    <path style="fill:var(--ico-tint,#c9553a);fill-opacity:var(--ico-tint-o,.34);stroke:none" d="M7 15.5a5 5 0 0 1 10 0z"/>
    <path d="M7 15.5a5 5 0 0 1 10 0"/>
    <path d="M2.5 15.5h19M5.5 19h13M9 22h6M12 3v5M9.5 5.8 12 8.3l2.5-2.5"/>
  </symbol>
  <symbol id="moon" viewBox="0 0 24 24" fill="none" stroke="currentColor" stroke-width="1.6" stroke-linecap="round" stroke-linejoin="round">
    <path style="fill:var(--ico-tint,#5f67b5);fill-opacity:var(--ico-tint-o,.34);stroke:none" d="M19.5 14.6A8 8 0 1 1 9.4 4.5a6.4 6.4 0 0 0 10.1 10.1z"/>
    <path d="M19.5 14.6A8 8 0 1 1 9.4 4.5a6.4 6.4 0 0 0 10.1 10.1z"/>
    <path d="M17 3.5v2.4M15.8 4.7h2.4"/>
  </symbol>
  <symbol id="flame" viewBox="0 0 24 24" fill="none" stroke="currentColor" stroke-width="1.6" stroke-linecap="round" stroke-linejoin="round">
    <path style="fill:var(--ico-tint,#dd7a32);fill-opacity:var(--ico-tint-o,.34);stroke:none" d="M12 21.2c-3.9 0-6.6-2.6-6.6-6.2 0-3.4 2.3-5.2 3.7-8.3 1 1.9 1.9 2.9 3 3.2 0-2.6 1-5 3-7.1.6 3.2 4.5 6.1 4.5 11.8 0 3.7-3.2 6.6-7.6 6.6z"/>
    <path d="M12 21.2c-3.9 0-6.6-2.6-6.6-6.2 0-3.4 2.3-5.2 3.7-8.3 1 1.9 1.9 2.9 3 3.2 0-2.6 1-5 3-7.1.6 3.2 4.5 6.1 4.5 11.8 0 3.7-3.2 6.6-7.6 6.6z"/>
    <path d="M12 21.2c-1.7 0-2.9-1.2-2.9-2.9 0-1.6 1.4-2.6 2.9-4.4 1.5 1.8 2.9 2.8 2.9 4.4 0 1.7-1.2 2.9-2.9 2.9z"/>
  </symbol>
  <symbol id="bulb" viewBox="0 0 24 24" fill="none" stroke="currentColor" stroke-width="1.6" stroke-linecap="round" stroke-linejoin="round">
    <path style="fill:var(--ico-tint,#c99a1e);fill-opacity:var(--ico-tint-o,.34);stroke:none" d="M12 3a6 6 0 0 0-3.7 10.7c.5.4.7 1 .7 1.6v.7h6v-.7c0-.6.3-1.2.7-1.6A6 6 0 0 0 12 3z"/>
    <path d="M12 3a6 6 0 0 0-3.7 10.7c.5.4.7 1 .7 1.6v.7h6v-.7c0-.6.3-1.2.7-1.6A6 6 0 0 0 12 3z"/>
    <path d="M9.2 18.8h5.6M10.3 21.3h3.4"/>
  </symbol>
  <symbol id="pillar" viewBox="0 0 24 24" fill="none" stroke="currentColor" stroke-width="1.6" stroke-linecap="round" stroke-linejoin="round">
    <path style="fill:var(--ico-tint,#b98d55);fill-opacity:var(--ico-tint-o,.34);stroke:none" d="M3 9.3 12 4l9 5.3z"/>
    <path d="M3 9.3 12 4l9 5.3zM4.5 20.5h15M5.5 17.8h13M6.8 10.5v7.3M10.3 10.5v7.3M13.7 10.5v7.3M17.2 10.5v7.3"/>
  </symbol>
  <symbol id="mitre" viewBox="0 0 24 24" fill="none" stroke="currentColor" stroke-width="1.6" stroke-linecap="round" stroke-linejoin="round">
    <path style="fill:var(--ico-tint,#c99a1e);fill-opacity:var(--ico-tint-o,.34);stroke:none" d="M6 20.5V9.5l3-4.5L12 3l3 2 3 4.5v11z"/>
    <path d="M6 20.5V9.5l3-4.5L12 3l3 2 3 4.5v11zM6 9.5 12 13l6-3.5"/>
    <path d="M12 6.5v8M10 9.3h4"/>
    <path d="M6 17.5h12"/>
  </symbol>
  <symbol id="cap" viewBox="0 0 24 24" fill="none" stroke="currentColor" stroke-width="1.6" stroke-linecap="round" stroke-linejoin="round">
    <path style="fill:var(--ico-tint,#8b6bb8);fill-opacity:var(--ico-tint-o,.34);stroke:none" d="M2.5 9 12 5l9.5 4L12 13z"/>
    <path d="M2.5 9 12 5l9.5 4L12 13z"/>
    <path d="M6.5 10.9v4.6c0 1.5 2.5 3 5.5 3s5.5-1.5 5.5-3v-4.6M21.5 9v5.2"/>
  </symbol>
  <symbol id="globe" viewBox="0 0 24 24" fill="none" stroke="currentColor" stroke-width="1.6" stroke-linecap="round" stroke-linejoin="round">
    <circle style="fill:var(--ico-tint,#3f86b5);fill-opacity:var(--ico-tint-o,.34);stroke:none" cx="12" cy="12" r="8.8"/>
    <circle cx="12" cy="12" r="8.8"/>
    <path d="M3.2 12h17.6M12 3.2c2.4 2.4 3.6 5.4 3.6 8.8s-1.2 6.4-3.6 8.8c-2.4-2.4-3.6-5.4-3.6-8.8S9.6 5.6 12 3.2z"/>
  </symbol>
  <symbol id="scales" viewBox="0 0 24 24" fill="none" stroke="currentColor" stroke-width="1.6" stroke-linecap="round" stroke-linejoin="round">
    <path style="fill:var(--ico-tint,#c99a1e);fill-opacity:var(--ico-tint-o,.34);stroke:none" d="M2.5 14a3.3 3.3 0 0 0 6.6 0zM14.9 14a3.3 3.3 0 0 0 6.6 0z"/>
    <path d="M12 3.5v17M8 20.5h8M4 6.8h16"/>
    <path d="M5.8 6.8 2.5 14M5.8 6.8 9.1 14M18.2 6.8 14.9 14M18.2 6.8 21.5 14"/>
    <path d="M2.5 14a3.3 3.3 0 0 0 6.6 0zM14.9 14a3.3 3.3 0 0 0 6.6 0z"/>
    <circle cx="12" cy="3.5" r=".9" style="fill:currentColor;stroke:none"/>
  </symbol>
  <symbol id="drop" viewBox="0 0 24 24" fill="none" stroke="currentColor" stroke-width="1.6" stroke-linecap="round" stroke-linejoin="round">
    <path style="fill:var(--ico-tint,#6aa6cf);fill-opacity:var(--ico-tint-o,.34);stroke:none" d="M12 3c3.6 4.6 6.2 7.8 6.2 11.3a6.2 6.2 0 0 1-12.4 0C5.8 10.8 8.4 7.6 12 3z"/>
    <path d="M12 3c3.6 4.6 6.2 7.8 6.2 11.3a6.2 6.2 0 0 1-12.4 0C5.8 10.8 8.4 7.6 12 3z"/>
    <path d="M9 14.6a3 3 0 0 0 3 3"/>
  </symbol>
  <symbol id="chalice" viewBox="0 0 24 24" fill="none" stroke="currentColor" stroke-width="1.6" stroke-linecap="round" stroke-linejoin="round">
    <path style="fill:var(--ico-tint,#c99a1e);fill-opacity:var(--ico-tint-o,.34);stroke:none" d="M6.5 3.5h11c0 4.6-2.2 7.6-5.5 7.6S6.5 8.1 6.5 3.5z"/>
    <path d="M6.5 3.5h11c0 4.6-2.2 7.6-5.5 7.6S6.5 8.1 6.5 3.5z"/>
    <path d="M12 11.1v5.4M8.5 20.5h7M9.5 20.5c0-2.2 1.1-4 2.5-4s2.5 1.8 2.5 4"/>
    <path d="M7.1 6.6h9.8"/>
  </symbol>
  <symbol id="tabernacle" viewBox="0 0 24 24" fill="none" stroke="currentColor" stroke-width="1.6" stroke-linecap="round" stroke-linejoin="round">
    <path style="fill:var(--ico-tint,#c99a1e);fill-opacity:var(--ico-tint-o,.34);stroke:none" d="M6 21V10a6 6 0 0 1 12 0v11z"/>
    <path d="M6 21V10a6 6 0 0 1 12 0v11zM4 21h16"/>
    <path d="M12 9.5v7M9.5 12h5"/>
  </symbol>
  <symbol id="music" viewBox="0 0 24 24" fill="none" stroke="currentColor" stroke-width="1.6" stroke-linecap="round" stroke-linejoin="round">
    <path style="fill:var(--ico-tint,#8b6bb8);fill-opacity:var(--ico-tint-o,.34);stroke:none" d="M9 18a2.5 2.5 0 1 1-5 0 2.5 2.5 0 0 1 5 0zM20 16a2.5 2.5 0 1 1-5 0 2.5 2.5 0 0 1 5 0z"/>
    <circle cx="6.5" cy="18" r="2.5"/>
    <circle cx="17.5" cy="16" r="2.5"/>
    <path d="M9 18V6l11-2.5V16M9 9.5l11-2.5"/>
  </symbol>
  <symbol id="sprout" viewBox="0 0 24 24" fill="none" stroke="currentColor" stroke-width="1.6" stroke-linecap="round" stroke-linejoin="round">
    <path style="fill:var(--ico-tint,#4f9a52);fill-opacity:var(--ico-tint-o,.34);stroke:none" d="M12 13.5C12 9.6 9.4 7 5.5 7c0 3.9 2.6 6.5 6.5 6.5zM12 11c0-3.9 2.6-6.5 6.5-6.5 0 3.9-2.6 6.5-6.5 6.5z"/>
    <path d="M12 13.5C12 9.6 9.4 7 5.5 7c0 3.9 2.6 6.5 6.5 6.5zM12 11c0-3.9 2.6-6.5 6.5-6.5 0 3.9-2.6 6.5-6.5 6.5z"/>
    <path d="M12 9.5v11.5M7 21h10"/>
  </symbol>
  <symbol id="bowl" viewBox="0 0 24 24" fill="none" stroke="currentColor" stroke-width="1.6" stroke-linecap="round" stroke-linejoin="round">
    <path style="fill:var(--ico-tint,#d08a2c);fill-opacity:var(--ico-tint-o,.34);stroke:none" d="M3.5 11.5h17a8.5 8.5 0 0 1-17 0z"/>
    <path d="M3.5 11.5h17a8.5 8.5 0 0 1-17 0z"/>
    <path d="M6.5 11.5c.5-2.2 2.8-3.8 5.5-3.8s5 1.6 5.5 3.8M15 3l-2.5 5.5M18.5 3.5l-4.2 5"/>
  </symbol>
  <symbol id="dish" viewBox="0 0 24 24" fill="none" stroke="currentColor" stroke-width="1.6" stroke-linecap="round" stroke-linejoin="round">
    <circle style="fill:var(--ico-tint,#d08a2c);fill-opacity:var(--ico-tint-o,.34);stroke:none" cx="12" cy="12" r="5.2"/>
    <circle cx="12" cy="12" r="5.2"/>
    <path d="M3 4v5a1.5 1.5 0 0 0 3 0V4M4.5 9v11M19.5 4c-1.4 0-2.3 1.8-2.3 4.5s.9 3.5 2.3 3.5v8"/>
  </symbol>
  <symbol id="house" viewBox="0 0 24 24" fill="none" stroke="currentColor" stroke-width="1.6" stroke-linecap="round" stroke-linejoin="round">
    <path style="fill:var(--ico-tint,#c9553a);fill-opacity:var(--ico-tint-o,.34);stroke:none" d="M3.5 11 12 4l8.5 7z"/>
    <path d="M3.5 11 12 4l8.5 7"/>
    <path d="M5.5 9.5v11h13v-11"/>
    <path d="M10 20.5v-5.5h4v5.5"/>
  </symbol>
  <symbol id="film" viewBox="0 0 24 24" fill="none" stroke="currentColor" stroke-width="1.6" stroke-linecap="round" stroke-linejoin="round">
    <path style="fill:var(--ico-tint,#8b6bb8);fill-opacity:var(--ico-tint-o,.34);stroke:none" d="M3.5 5.5h17v13h-17z"/>
    <path d="M5.5 5.5h13a2 2 0 0 1 2 2v9a2 2 0 0 1-2 2h-13a2 2 0 0 1-2-2v-9a2 2 0 0 1 2-2z"/>
    <path d="M10 9.2v5.6l4.8-2.8z"/>
  </symbol>
  <symbol id="camera" viewBox="0 0 24 24" fill="none" stroke="currentColor" stroke-width="1.6" stroke-linecap="round" stroke-linejoin="round">
    <path style="fill:var(--ico-tint,#3f86b5);fill-opacity:var(--ico-tint-o,.34);stroke:none" d="M3.5 8.5a2 2 0 0 1 2-2h2.3l1.5-2.2h5.4l1.5 2.2h2.3a2 2 0 0 1 2 2v9.5a2 2 0 0 1-2 2h-13a2 2 0 0 1-2-2z"/>
    <path d="M3.5 8.5a2 2 0 0 1 2-2h2.3l1.5-2.2h5.4l1.5 2.2h2.3a2 2 0 0 1 2 2v9.5a2 2 0 0 1-2 2h-13a2 2 0 0 1-2-2z"/>
    <circle cx="12" cy="13" r="3.6"/>
  </symbol>
  <symbol id="link" viewBox="0 0 24 24" fill="none" stroke="currentColor" stroke-width="1.6" stroke-linecap="round" stroke-linejoin="round">
    <path style="fill:var(--ico-tint,#3f86b5);fill-opacity:var(--ico-tint-o,.34);stroke:none" d="M10 14a4.5 4.5 0 0 0 6.4 0l3-3a4.5 4.5 0 0 0-6.4-6.4l-1.2 1.2"/>
    <path d="M10 14a4.5 4.5 0 0 0 6.4 0l3-3a4.5 4.5 0 0 0-6.4-6.4l-1.2 1.2"/>
    <path d="M14 10a4.5 4.5 0 0 0-6.4 0l-3 3a4.5 4.5 0 0 0 6.4 6.4l1.2-1.2"/>
  </symbol>
  <symbol id="footsteps" viewBox="0 0 24 24" fill="none" stroke="currentColor" stroke-width="1.6" stroke-linecap="round" stroke-linejoin="round">
    <path style="fill:var(--ico-tint,#4f9a52);fill-opacity:var(--ico-tint-o,.34);stroke:none" d="M7 3.2c1.7 0 2.7 1.8 2.7 4.3S8.6 11.3 7 11.3 4.3 9.8 4.3 7.3 5.3 3.2 7 3.2zM17 8.2c1.7 0 2.7 1.8 2.7 4.3s-1.1 3.8-2.7 3.8-2.7-1.5-2.7-4 1-4.1 2.7-4.1z"/>
    <path d="M7 3.2c1.7 0 2.7 1.8 2.7 4.3S8.6 11.3 7 11.3 4.3 9.8 4.3 7.3 5.3 3.2 7 3.2zM17 8.2c1.7 0 2.7 1.8 2.7 4.3s-1.1 3.8-2.7 3.8-2.7-1.5-2.7-4 1-4.1 2.7-4.1z"/>
    <path d="M5.3 13.6l3.4.6-.4 2.4a1.7 1.7 0 0 1-3.4-.6zM15.3 18.6l3.4.6-.4 2a1.7 1.7 0 0 1-3.4-.6z"/>
  </symbol>
  <symbol id="pen" viewBox="0 0 24 24" fill="none" stroke="currentColor" stroke-width="1.6" stroke-linecap="round" stroke-linejoin="round">
    <path style="fill:var(--ico-tint,#3f86b5);fill-opacity:var(--ico-tint-o,.34);stroke:none" d="M15.5 4.5l4 4L9 19l-5 1 1-5z"/>
    <path d="M15.5 4.5l4 4L9 19l-5 1 1-5zM13 7l4 4"/>
  </symbol>
  <symbol id="veg" viewBox="0 0 24 24" fill="none" stroke="currentColor" stroke-width="1.6" stroke-linecap="round" stroke-linejoin="round">
    <path style="fill:var(--ico-tint,#4f9a52);fill-opacity:var(--ico-tint-o,.34);stroke:none" d="M7.5 12.5a3.6 3.6 0 0 1 .4-6.8 4.2 4.2 0 0 1 8.2 0 3.6 3.6 0 0 1 .4 6.8z"/>
    <path d="M7.5 12.5a3.6 3.6 0 0 1 .4-6.8 4.2 4.2 0 0 1 8.2 0 3.6 3.6 0 0 1 .4 6.8z"/>
    <path d="M10 12.5l-.8 8h5.6l-.8-8M12 12.5v-3"/>
  </symbol>
  <symbol id="paw" viewBox="0 0 24 24" fill="none" stroke="currentColor" stroke-width="1.6" stroke-linecap="round" stroke-linejoin="round">
    <path style="fill:var(--ico-tint,#a8754a);fill-opacity:var(--ico-tint-o,.34);stroke:none" d="M12 12.5c-2.8 0-5.5 3.2-5.5 5.5 0 1.6 1.2 2.5 2.7 2.5 1.2 0 1.8-.6 2.8-.6s1.6.6 2.8.6c1.5 0 2.7-.9 2.7-2.5 0-2.3-2.7-5.5-5.5-5.5z"/>
    <path d="M12 12.5c-2.8 0-5.5 3.2-5.5 5.5 0 1.6 1.2 2.5 2.7 2.5 1.2 0 1.8-.6 2.8-.6s1.6.6 2.8.6c1.5 0 2.7-.9 2.7-2.5 0-2.3-2.7-5.5-5.5-5.5z"/>
    <ellipse cx="9.3" cy="6.2" rx="1.7" ry="2.3"/>
    <ellipse cx="14.7" cy="6.2" rx="1.7" ry="2.3"/>
    <ellipse cx="4.9" cy="10.6" rx="1.6" ry="2"/>
    <ellipse cx="19.1" cy="10.6" rx="1.6" ry="2"/>
  </symbol>
  <symbol id="leaf-fall" viewBox="0 0 24 24" fill="none" stroke="currentColor" stroke-width="1.6" stroke-linecap="round" stroke-linejoin="round">
    <path style="fill:var(--ico-tint,#dd7a32);fill-opacity:var(--ico-tint-o,.34);stroke:none" d="M12 3.5l1.8 3.6 3.4-1-.6 3.8 3.4 1.6-3 2.4 1.2 3.3-3.8-.4L12 19.5l-2.4-2.7-3.8.4 1.2-3.3-3-2.4 3.4-1.6-.6-3.8 3.4 1z"/>
    <path d="M12 3.5l1.8 3.6 3.4-1-.6 3.8 3.4 1.6-3 2.4 1.2 3.3-3.8-.4L12 19.5l-2.4-2.7-3.8.4 1.2-3.3-3-2.4 3.4-1.6-.6-3.8 3.4 1z"/>
    <path d="M12 9v12.5"/>
  </symbol>
  <symbol id="phone" viewBox="0 0 24 24" fill="none" stroke="currentColor" stroke-width="1.6" stroke-linecap="round" stroke-linejoin="round">
    <path style="fill:var(--ico-tint,#4f9a52);fill-opacity:var(--ico-tint-o,.34);stroke:none" d="M5 3.5h3.3l1.7 4.3-2.2 1.4a11 11 0 0 0 5 5l1.4-2.2 4.3 1.7V17a2 2 0 0 1-2 2A15 15 0 0 1 3 5.5a2 2 0 0 1 2-2z"/>
    <path d="M5 3.5h3.3l1.7 4.3-2.2 1.4a11 11 0 0 0 5 5l1.4-2.2 4.3 1.7V17a2 2 0 0 1-2 2A15 15 0 0 1 3 5.5a2 2 0 0 1 2-2z"/>
  </symbol>
  <symbol id="mail" viewBox="0 0 24 24" fill="none" stroke="currentColor" stroke-width="1.6" stroke-linecap="round" stroke-linejoin="round">
    <path style="fill:var(--ico-tint,#3f86b5);fill-opacity:var(--ico-tint-o,.34);stroke:none" d="M3 7l9 6.2L21 7v-.5a1.5 1.5 0 0 0-1.5-1.5h-15A1.5 1.5 0 0 0 3 6.5z"/>
    <path d="M4.5 5h15A1.5 1.5 0 0 1 21 6.5v11a1.5 1.5 0 0 1-1.5 1.5h-15A1.5 1.5 0 0 1 3 17.5v-11A1.5 1.5 0 0 1 4.5 5z"/>
    <path d="M3 7l9 6.2L21 7"/>
  </symbol>
  <symbol id="boat" viewBox="0 0 24 24" fill="none" stroke="currentColor" stroke-width="1.6" stroke-linecap="round" stroke-linejoin="round">
    <path style="fill:var(--ico-tint,#6aa6cf);fill-opacity:var(--ico-tint-o,.34);stroke:none" d="M11 3v12H4.5zM13 6.5V15h6z"/>
    <path d="M11 3v12H4.5zM13 6.5V15h6z"/>
    <path d="M2.5 17.5h19l-2.2 3h-14.6z"/>
  </symbol>
  <symbol id="parking" viewBox="0 0 24 24" fill="none" stroke="currentColor" stroke-width="1.6" stroke-linecap="round" stroke-linejoin="round">
    <path style="fill:var(--ico-tint,#3f86b5);fill-opacity:var(--ico-tint-o,.34);stroke:none" d="M7 4h10a3 3 0 0 1 3 3v10a3 3 0 0 1-3 3H7a3 3 0 0 1-3-3V7a3 3 0 0 1 3-3z"/>
    <path d="M7 4h10a3 3 0 0 1 3 3v10a3 3 0 0 1-3 3H7a3 3 0 0 1-3-3V7a3 3 0 0 1 3-3z"/>
    <path d="M10 16.5v-9h3.2a2.7 2.7 0 0 1 0 5.4H10"/>
  </symbol>
  <symbol id="question" viewBox="0 0 24 24" fill="none" stroke="currentColor" stroke-width="1.6" stroke-linecap="round" stroke-linejoin="round">
    <circle style="fill:var(--ico-tint,#8b6bb8);fill-opacity:var(--ico-tint-o,.34);stroke:none" cx="12" cy="12" r="8.8"/>
    <circle cx="12" cy="12" r="8.8"/>
    <path d="M9.5 9.5a2.5 2.5 0 1 1 3.5 2.3c-.7.4-1 .9-1 1.7"/>
    <circle cx="12" cy="16.8" r=".9" style="fill:currentColor;stroke:none"/>
  </symbol>
</svg>
